<?xml version="1.0" encoding="UTF-8" standalone="no"?><!-- Generator: Gravit.io --><svg xmlns="http://www.w3.org/2000/svg" xmlns:xlink="http://www.w3.org/1999/xlink" style="isolation:isolate" viewBox="0 0 239 162" width="239pt" height="162pt"><g><path d=" M 133 40 L 138 46 L 21 162 L 0 142 L 15 142 L 21 150 L 133 40 Z " fill="rgb(191,191,191)"/><path d=" M 103 32 L 103 28 L 122 8 L 124 19 L 65 83 L 62 81 L 103 32 L 103 32 L 103 32 L 103 32 L 103 32 L 103 32 L 103 32 L 103 32 Z  M 136 21 C 136 18.792 137.792 17 140 17 C 142.208 17 144 18.792 144 21 C 144 23.208 142.208 25 140 25 C 137.792 25 136 23.208 136 21 L 136 21 L 136 21 L 136 21 L 136 21 L 136 21 L 136 21 Z  M 151 24 L 162 37 L 163 37 L 185 64 L 180 71 L 150 27 L 151 24 L 151 24 L 151 24 L 151 24 L 151 24 L 151 24 Z  M 189 71 L 202 77 L 191 83 L 184 76 L 189 71 L 189 71 L 189 71 L 189 71 L 189 71 Z  M 207.198 96 C 214.792 95.203 204.708 112.989 203.198 118 C 204.105 114.094 206.026 108.938 207.198 105 C 207.702 102.584 208.511 99.609 207.198 96 L 207.198 96 L 207.198 96 L 207.198 96 Z  M 214 96 C 221.594 95.203 211.51 112.989 210 118 C 210.906 114.094 212.828 108.938 214 105 C 214.503 102.584 215.313 99.609 214 96 L 214 96 L 214 96 Z  M 220.802 96 C 228.395 95.203 218.312 112.989 216.802 118 C 217.708 114.094 219.63 108.938 220.802 105 C 221.305 102.584 222.114 99.609 220.802 96 L 220.802 96 Z  M 130 0 L 156 19 L 165 33 L 165 35 L 190 68 L 200 68 L 213 79 L 218 79 L 219 84 L 226 84 L 239 100 L 219 127 L 217 127 L 214 129 L 210 129 L 206 132 L 202 132 L 200 133 L 193 128 L 193 123 L 190 107 L 185 91 L 182 89 L 169 77 L 138 35 L 130 25 L 15 136 L 2 136 L 97 25 L 100 25 L 121 2 L 125 2 L 130 0 L 130 0 L 130 0 L 130 0 L 130 0 L 130 0 L 130 0 L 130 0 Z  M 227.603 96 C 235.197 95.203 225.114 112.989 223.603 118 C 224.51 114.094 226.432 108.938 227.603 105 C 228.107 102.584 228.916 99.609 227.603 96 Z " fill-rule="evenodd" fill="rgb(191,191,191)"/></g></svg>